  0
SECTION
  2
HEADER
  9
$ACADVER
  1
AC1009
  9
$INSBASE
 10
0.000000
 20
0.000000
 30
0.000000
  9
$EXTMIN
 10
0.000000
 20
0.000000
 30
0.000000
  9
$EXTMAX
 10
360.182661
 20
280.079300
 30
0.000000
  9
$MEASUREMENT
 70
     1
  9
$INSUNITS
 70
     4
  0
ENDSEC
  0
SECTION
  2
TABLES
  0
TABLE
  2
LTYPE
 70
     1
  0
LTYPE
  2
CONTINUOUS
 70
     0
  3
Solid line
 72
    65
 73
     0
 40
0.000000
  0
ENDTAB
  0
TABLE
  2
LAYER
 70
     4
  0
LAYER
  2
CUT
 70
     0
 62
     7
  6
CONTINUOUS
  0
LAYER
  2
ETCH
 70
     0
 62
     5
  6
CONTINUOUS
  0
LAYER
  2
LABEL
 70
     0
 62
     3
  6
CONTINUOUS
  0
LAYER
  2
SHEET
 70
     0
 62
     8
  6
CONTINUOUS
  0
ENDTAB
  0
ENDSEC
  0
SECTION
  2
BLOCKS
  0
ENDSEC
  0
SECTION
  2
ENTITIES
  0
POLYLINE
  8
CUT
 66
     1
 10
0.000000
 20
0.000000
 30
0.000000
 70
     1
  0
VERTEX
  8
CUT
 10
360.182661
 20
267.881828
 30
0.000000
 42
0.067729
  0
VERTEX
  8
CUT
 10
0.000000
 20
267.881828
 30
0.000000
  0
VERTEX
  8
CUT
 10
36.454158
 20
0.000000
 30
0.000000
 42
-0.067729
  0
VERTEX
  8
CUT
 10
323.728503
 20
0.000000
 30
0.000000
  0
SEQEND
  8
CUT
  0
LINE
  8
ETCH
 10
270.343291
 20
277.026443
 30
0.000000
 11
269.937844
 21
271.040157
 31
0.000000
  0
LINE
  8
ETCH
 10
252.074454
 20
7.293558
 30
0.000000
 11
252.479901
 21
13.279844
 31
0.000000
  0
LINE
  8
ETCH
 10
180.091331
 20
280.079300
 30
0.000000
 11
180.091331
 21
274.079300
 31
0.000000
  0
LINE
  8
ETCH
 10
180.091331
 20
9.728455
 30
0.000000
 11
180.091331
 21
15.728455
 31
0.000000
  0
LINE
  8
ETCH
 10
89.839370
 20
277.026443
 30
0.000000
 11
90.244817
 21
271.040157
 31
0.000000
  0
LINE
  8
ETCH
 10
108.108207
 20
7.293558
 30
0.000000
 11
107.702760
 21
13.279844
 31
0.000000
  0
TEXT
  8
LABEL
 10
180.091331
 20
144.903877
 30
0.000000
 40
14.000000
  1
P06
 72
     1
 11
180.091331
 21
144.903877
 31
0.000000
 73
     2
  0
ENDSEC
  0
EOF
