  0
SECTION
  2
HEADER
  9
$ACADVER
  1
AC1009
  9
$INSBASE
 10
0.000000
 20
0.000000
 30
0.000000
  9
$EXTMIN
 10
0.000000
 20
0.000000
 30
0.000000
  9
$EXTMAX
 10
128.489375
 20
144.695021
 30
0.000000
  9
$MEASUREMENT
 70
     1
  9
$INSUNITS
 70
     4
  0
ENDSEC
  0
SECTION
  2
TABLES
  0
TABLE
  2
LTYPE
 70
     1
  0
LTYPE
  2
CONTINUOUS
 70
     0
  3
Solid line
 72
    65
 73
     0
 40
0.000000
  0
ENDTAB
  0
TABLE
  2
LAYER
 70
     4
  0
LAYER
  2
CUT
 70
     0
 62
     7
  6
CONTINUOUS
  0
LAYER
  2
ETCH
 70
     0
 62
     5
  6
CONTINUOUS
  0
LAYER
  2
LABEL
 70
     0
 62
     3
  6
CONTINUOUS
  0
LAYER
  2
SHEET
 70
     0
 62
     8
  6
CONTINUOUS
  0
ENDTAB
  0
ENDSEC
  0
SECTION
  2
BLOCKS
  0
ENDSEC
  0
SECTION
  2
ENTITIES
  0
POLYLINE
  8
CUT
 66
     1
 10
0.000000
 20
0.000000
 30
0.000000
 70
     1
  0
VERTEX
  8
CUT
 10
128.489375
 20
144.403462
 30
0.000000
 42
0.004538
  0
VERTEX
  8
CUT
 10
0.000000
 20
144.403462
 30
0.000000
  0
VERTEX
  8
CUT
 10
1.310709
 20
0.000000
 30
0.000000
 42
-0.004538
  0
VERTEX
  8
CUT
 10
127.178667
 20
0.000000
 30
0.000000
  0
SEQEND
  8
CUT
  0
LINE
  8
ETCH
 10
96.367362
 20
144.622131
 30
0.000000
 11
96.340133
 21
138.622192
 31
0.000000
  0
LINE
  8
ETCH
 10
95.712001
 20
0.214208
 30
0.000000
 11
95.739231
 21
6.214146
 31
0.000000
  0
LINE
  8
ETCH
 10
64.244688
 20
144.695021
 30
0.000000
 11
64.244688
 21
138.695021
 31
0.000000
  0
LINE
  8
ETCH
 10
64.244688
 20
0.285611
 30
0.000000
 11
64.244688
 21
6.285611
 31
0.000000
  0
LINE
  8
ETCH
 10
32.122013
 20
144.622131
 30
0.000000
 11
32.149242
 21
138.622192
 31
0.000000
  0
LINE
  8
ETCH
 10
32.777374
 20
0.214208
 30
0.000000
 11
32.750145
 21
6.214146
 31
0.000000
  0
TEXT
  8
LABEL
 10
64.244688
 20
72.490316
 30
0.000000
 40
14.000000
  1
P02
 72
     1
 11
64.244688
 21
72.490316
 31
0.000000
 73
     2
  0
ENDSEC
  0
EOF
