  0
SECTION
  2
HEADER
  9
$ACADVER
  1
AC1009
  9
$INSBASE
 10
0.000000
 20
0.000000
 30
0.000000
  9
$EXTMIN
 10
0.000000
 20
0.000000
 30
0.000000
  9
$EXTMAX
 10
214.791346
 20
273.623996
 30
0.000000
  9
$MEASUREMENT
 70
     1
  9
$INSUNITS
 70
     4
  0
ENDSEC
  0
SECTION
  2
TABLES
  0
TABLE
  2
LTYPE
 70
     1
  0
LTYPE
  2
CONTINUOUS
 70
     0
  3
Solid line
 72
    65
 73
     0
 40
0.000000
  0
ENDTAB
  0
TABLE
  2
LAYER
 70
     4
  0
LAYER
  2
CUT
 70
     0
 62
     7
  6
CONTINUOUS
  0
LAYER
  2
ETCH
 70
     0
 62
     5
  6
CONTINUOUS
  0
LAYER
  2
LABEL
 70
     0
 62
     3
  6
CONTINUOUS
  0
LAYER
  2
SHEET
 70
     0
 62
     8
  6
CONTINUOUS
  0
ENDTAB
  0
ENDSEC
  0
SECTION
  2
BLOCKS
  0
ENDSEC
  0
SECTION
  2
ENTITIES
  0
POLYLINE
  8
CUT
 66
     1
 10
0.000000
 20
0.000000
 30
0.000000
 70
     1
  0
VERTEX
  8
CUT
 10
214.791346
 20
269.322407
 30
0.000000
 42
0.040054
  0
VERTEX
  8
CUT
 10
0.000000
 20
269.322407
 30
0.000000
  0
VERTEX
  8
CUT
 10
21.609360
 20
0.000000
 30
0.000000
 42
-0.040054
  0
VERTEX
  8
CUT
 10
193.181986
 20
0.000000
 30
0.000000
  0
SEQEND
  8
CUT
  0
LINE
  8
ETCH
 10
161.136566
 20
272.548168
 30
0.000000
 11
160.896437
 21
266.552975
 31
0.000000
  0
LINE
  8
ETCH
 10
150.323222
 20
2.576697
 30
0.000000
 11
150.563352
 21
8.571890
 31
0.000000
  0
LINE
  8
ETCH
 10
107.395673
 20
273.623996
 30
0.000000
 11
107.395673
 21
267.623996
 31
0.000000
  0
LINE
  8
ETCH
 10
107.395673
 20
3.436055
 30
0.000000
 11
107.395673
 21
9.436055
 31
0.000000
  0
LINE
  8
ETCH
 10
53.654780
 20
272.548168
 30
0.000000
 11
53.894910
 21
266.552975
 31
0.000000
  0
LINE
  8
ETCH
 10
64.468124
 20
2.576697
 30
0.000000
 11
64.227994
 21
8.571890
 31
0.000000
  0
TEXT
  8
LABEL
 10
107.395673
 20
138.530026
 30
0.000000
 40
14.000000
  1
P04
 72
     1
 11
107.395673
 21
138.530026
 31
0.000000
 73
     2
  0
ENDSEC
  0
EOF
