  0
SECTION
  2
HEADER
  9
$ACADVER
  1
AC1009
  9
$INSBASE
 10
0.000000
 20
0.000000
 30
0.000000
  9
$EXTMIN
 10
0.000000
 20
0.000000
 30
0.000000
  9
$EXTMAX
 10
2500.000000
 20
1310.000000
 30
0.000000
  9
$MEASUREMENT
 70
     1
  9
$INSUNITS
 70
     4
  0
ENDSEC
  0
SECTION
  2
TABLES
  0
TABLE
  2
LTYPE
 70
     1
  0
LTYPE
  2
CONTINUOUS
 70
     0
  3
Solid line
 72
    65
 73
     0
 40
0.000000
  0
ENDTAB
  0
TABLE
  2
LAYER
 70
     4
  0
LAYER
  2
CUT
 70
     0
 62
     7
  6
CONTINUOUS
  0
LAYER
  2
ETCH
 70
     0
 62
     5
  6
CONTINUOUS
  0
LAYER
  2
LABEL
 70
     0
 62
     3
  6
CONTINUOUS
  0
LAYER
  2
SHEET
 70
     0
 62
     8
  6
CONTINUOUS
  0
ENDTAB
  0
ENDSEC
  0
SECTION
  2
BLOCKS
  0
ENDSEC
  0
SECTION
  2
ENTITIES
  0
POLYLINE
  8
SHEET
 66
     1
 10
0.000000
 20
0.000000
 30
0.000000
 70
     1
  0
VERTEX
  8
SHEET
 10
0.000000
 20
0.000000
 30
0.000000
  0
VERTEX
  8
SHEET
 10
2500.000000
 20
0.000000
 30
0.000000
  0
VERTEX
  8
SHEET
 10
2500.000000
 20
1250.000000
 30
0.000000
  0
VERTEX
  8
SHEET
 10
0.000000
 20
1250.000000
 30
0.000000
  0
SEQEND
  8
SHEET
  0
TEXT
  8
SHEET
 10
0.000000
 20
1270.000000
 30
0.000000
 40
18.000000
  1
JLO L372 generator chamber - sheet 1 of 1 - 2500 x 1250 mm - 1.0 mm Mild steel
  0
POLYLINE
  8
CUT
 66
     1
 10
0.000000
 20
0.000000
 30
0.000000
 70
     1
  0
VERTEX
  8
CUT
 10
47.986786
 20
368.355387
 30
0.000000
 42
0.063039
  0
VERTEX
  8
CUT
 10
10.322117
 20
10.000000
 30
0.000000
  0
VERTEX
  8
CUT
 10
574.336066
 20
21.953849
 30
0.000000
 42
-0.063039
  0
VERTEX
  8
CUT
 10
597.190332
 20
239.397665
 30
0.000000
  0
SEQEND
  8
CUT
  0
LINE
  8
ETCH
 10
30.120761
 20
279.834452
 30
0.000000
 11
36.036613
 21
278.833109
 31
0.000000
  0
LINE
  8
ETCH
 10
586.349538
 20
185.684701
 30
0.000000
 11
580.433686
 21
186.686045
 31
0.000000
  0
LINE
  8
ETCH
 10
17.859320
 20
190.364860
 30
0.000000
 11
23.826451
 21
189.737689
 31
0.000000
  0
LINE
  8
ETCH
 10
578.909509
 20
131.396109
 30
0.000000
 11
572.942378
 21
132.023280
 31
0.000000
  0
LINE
  8
ETCH
 10
11.251045
 20
100.301096
 30
0.000000
 11
17.245813
 21
100.050583
 31
0.000000
  0
LINE
  8
ETCH
 10
574.899723
 20
76.746983
 30
0.000000
 11
568.904955
 21
76.997496
 31
0.000000
  0
TEXT
  8
LABEL
 10
298.384414
 20
160.880484
 30
0.000000
 40
14.000000
  1
P09
 50
84.000000
 72
     1
 11
298.384414
 21
160.880484
 31
0.000000
 73
     2
  0
POLYLINE
  8
CUT
 66
     1
 10
0.000000
 20
0.000000
 30
0.000000
 70
     1
  0
VERTEX
  8
CUT
 10
967.372993
 20
277.881828
 30
0.000000
 42
0.067729
  0
VERTEX
  8
CUT
 10
607.190332
 20
277.881828
 30
0.000000
  0
VERTEX
  8
CUT
 10
643.644490
 20
10.000000
 30
0.000000
 42
-0.067729
  0
VERTEX
  8
CUT
 10
930.918835
 20
10.000000
 30
0.000000
  0
SEQEND
  8
CUT
  0
LINE
  8
ETCH
 10
877.533623
 20
287.026443
 30
0.000000
 11
877.128176
 21
281.040157
 31
0.000000
  0
LINE
  8
ETCH
 10
859.264786
 20
17.293558
 30
0.000000
 11
859.670233
 21
23.279844
 31
0.000000
  0
LINE
  8
ETCH
 10
787.281662
 20
290.079300
 30
0.000000
 11
787.281662
 21
284.079300
 31
0.000000
  0
LINE
  8
ETCH
 10
787.281662
 20
19.728455
 30
0.000000
 11
787.281662
 21
25.728455
 31
0.000000
  0
LINE
  8
ETCH
 10
697.029701
 20
287.026443
 30
0.000000
 11
697.435149
 21
281.040157
 31
0.000000
  0
LINE
  8
ETCH
 10
715.298539
 20
17.293558
 30
0.000000
 11
714.893092
 21
23.279844
 31
0.000000
  0
TEXT
  8
LABEL
 10
787.281662
 20
154.903877
 30
0.000000
 40
14.000000
  1
P06
 72
     1
 11
787.281662
 21
154.903877
 31
0.000000
 73
     2
  0
POLYLINE
  8
CUT
 66
     1
 10
0.000000
 20
0.000000
 30
0.000000
 70
     1
  0
VERTEX
  8
CUT
 10
1264.647338
 20
277.881828
 30
0.000000
 42
0.067729
  0
VERTEX
  8
CUT
 10
977.372993
 20
277.881828
 30
0.000000
  0
VERTEX
  8
CUT
 10
1013.827151
 20
10.000000
 30
0.000000
 42
-0.067729
  0
VERTEX
  8
CUT
 10
1228.193180
 20
10.000000
 30
0.000000
  0
SEQEND
  8
CUT
  0
LINE
  8
ETCH
 10
1192.993289
 20
285.175386
 30
0.000000
 11
1192.587841
 21
279.189101
 31
0.000000
  0
LINE
  8
ETCH
 10
1174.724451
 20
15.442502
 30
0.000000
 11
1175.129899
 21
21.428787
 31
0.000000
  0
LINE
  8
ETCH
 10
1121.010165
 20
287.610283
 30
0.000000
 11
1121.010165
 21
281.610283
 31
0.000000
  0
LINE
  8
ETCH
 10
1121.010165
 20
17.259438
 30
0.000000
 11
1121.010165
 21
23.259438
 31
0.000000
  0
LINE
  8
ETCH
 10
1049.027042
 20
285.175386
 30
0.000000
 11
1049.432489
 21
279.189101
 31
0.000000
  0
LINE
  8
ETCH
 10
1067.295879
 20
15.442502
 30
0.000000
 11
1066.890432
 21
21.428787
 31
0.000000
  0
TEXT
  8
LABEL
 10
1121.010165
 20
152.434860
 30
0.000000
 40
14.000000
  1
P05
 72
     1
 11
1121.010165
 21
152.434860
 31
0.000000
 73
     2
  0
POLYLINE
  8
CUT
 66
     1
 10
0.000000
 20
0.000000
 30
0.000000
 70
     1
  0
VERTEX
  8
CUT
 10
1297.697059
 20
227.443817
 30
0.000000
 42
0.063039
  0
VERTEX
  8
CUT
 10
1274.842793
 20
10.000000
 30
0.000000
  0
VERTEX
  8
CUT
 10
1838.856741
 20
21.953849
 30
0.000000
 42
-0.063039
  0
VERTEX
  8
CUT
 10
1846.900604
 20
98.486095
 30
0.000000
  0
SEQEND
  8
CUT
  0
LINE
  8
ETCH
 10
1286.856266
 20
173.730853
 30
0.000000
 11
1292.772118
 21
172.729509
 31
0.000000
  0
LINE
  8
ETCH
 10
1843.085043
 20
79.581102
 30
0.000000
 11
1837.169190
 21
80.582445
 31
0.000000
  0
LINE
  8
ETCH
 10
1279.416236
 20
119.442260
 30
0.000000
 11
1285.383368
 21
118.815089
 31
0.000000
  0
LINE
  8
ETCH
 10
1840.466426
 20
60.473509
 30
0.000000
 11
1834.499294
 21
61.100680
 31
0.000000
  0
LINE
  8
ETCH
 10
1275.406450
 20
64.793135
 30
0.000000
 11
1281.401218
 21
64.542621
 31
0.000000
  0
LINE
  8
ETCH
 10
1839.055128
 20
41.239022
 30
0.000000
 11
1833.060360
 21
41.489535
 31
0.000000
  0
TEXT
  8
LABEL
 10
1559.941331
 20
89.957885
 30
0.000000
 40
14.000000
  1
P10
 50
84.000000
 72
     1
 11
1559.941331
 21
89.957885
 31
0.000000
 73
     2
  0
POLYLINE
  8
CUT
 66
     1
 10
0.000000
 20
0.000000
 30
0.000000
 70
     1
  0
VERTEX
  8
CUT
 10
1871.954248
 20
224.268125
 30
0.000000
 42
0.040054
  0
VERTEX
  8
CUT
 10
1856.971161
 20
10.000000
 30
0.000000
  0
VERTEX
  8
CUT
 10
2127.144906
 20
12.769740
 30
0.000000
 42
-0.040054
  0
VERTEX
  8
CUT
 10
2139.113207
 20
183.924423
 30
0.000000
  0
SEQEND
  8
CUT
  0
LINE
  8
ETCH
 10
1864.993577
 20
170.969063
 30
0.000000
 11
1870.957415
 21
170.311315
 31
0.000000
  0
LINE
  8
ETCH
 10
2133.553110
 20
141.349802
 30
0.000000
 11
2127.589272
 21
142.007550
 31
0.000000
  0
LINE
  8
ETCH
 10
1860.171594
 20
117.434126
 30
0.000000
 11
1866.156978
 21
117.015588
 31
0.000000
  0
LINE
  8
ETCH
 10
2129.701371
 20
98.586768
 30
0.000000
 11
2123.715987
 21
99.005307
 31
0.000000
  0
LINE
  8
ETCH
 10
1857.496026
 20
63.749098
 30
0.000000
 11
1863.493366
 21
63.570439
 31
0.000000
  0
LINE
  8
ETCH
 10
2127.564161
 20
55.703843
 30
0.000000
 11
2121.566822
 21
55.882502
 31
0.000000
  0
TEXT
  8
LABEL
 10
1994.936483
 20
108.010447
 30
0.000000
 40
14.000000
  1
P04
 50
86.000000
 72
     1
 11
1994.936483
 21
108.010447
 31
0.000000
 73
     2
  0
POLYLINE
  8
CUT
 66
     1
 10
0.000000
 20
0.000000
 30
0.000000
 70
     1
  0
VERTEX
  8
CUT
 10
10.000000
 20
378.355387
 30
0.000000
  0
VERTEX
  8
CUT
 10
371.283155
 20
378.355387
 30
0.000000
  0
VERTEX
  8
CUT
 10
371.283155
 20
566.251167
 30
0.000000
  0
VERTEX
  8
CUT
 10
10.000000
 20
566.251167
 30
0.000000
  0
SEQEND
  8
CUT
  0
LINE
  8
ETCH
 10
100.320789
 20
378.355387
 30
0.000000
 11
100.320789
 21
384.355387
 31
0.000000
  0
LINE
  8
ETCH
 10
100.320789
 20
566.251167
 30
0.000000
 11
100.320789
 21
560.251167
 31
0.000000
  0
LINE
  8
ETCH
 10
190.641578
 20
378.355387
 30
0.000000
 11
190.641578
 21
384.355387
 31
0.000000
  0
LINE
  8
ETCH
 10
190.641578
 20
566.251167
 30
0.000000
 11
190.641578
 21
560.251167
 31
0.000000
  0
LINE
  8
ETCH
 10
280.962366
 20
378.355387
 30
0.000000
 11
280.962366
 21
384.355387
 31
0.000000
  0
LINE
  8
ETCH
 10
280.962366
 20
566.251167
 30
0.000000
 11
280.962366
 21
560.251167
 31
0.000000
  0
TEXT
  8
LABEL
 10
190.641578
 20
472.303277
 30
0.000000
 40
14.000000
  1
P07
 72
     1
 11
190.641578
 21
472.303277
 31
0.000000
 73
     2
  0
POLYLINE
  8
CUT
 66
     1
 10
0.000000
 20
0.000000
 30
0.000000
 70
     1
  0
VERTEX
  8
CUT
 10
381.283155
 20
378.355387
 30
0.000000
  0
VERTEX
  8
CUT
 10
742.566310
 20
378.355387
 30
0.000000
  0
VERTEX
  8
CUT
 10
742.566310
 20
566.251167
 30
0.000000
  0
VERTEX
  8
CUT
 10
381.283155
 20
566.251167
 30
0.000000
  0
SEQEND
  8
CUT
  0
LINE
  8
ETCH
 10
471.603944
 20
378.355387
 30
0.000000
 11
471.603944
 21
384.355387
 31
0.000000
  0
LINE
  8
ETCH
 10
471.603944
 20
566.251167
 30
0.000000
 11
471.603944
 21
560.251167
 31
0.000000
  0
LINE
  8
ETCH
 10
561.924733
 20
378.355387
 30
0.000000
 11
561.924733
 21
384.355387
 31
0.000000
  0
LINE
  8
ETCH
 10
561.924733
 20
566.251167
 30
0.000000
 11
561.924733
 21
560.251167
 31
0.000000
  0
LINE
  8
ETCH
 10
652.245522
 20
378.355387
 30
0.000000
 11
652.245522
 21
384.355387
 31
0.000000
  0
LINE
  8
ETCH
 10
652.245522
 20
566.251167
 30
0.000000
 11
652.245522
 21
560.251167
 31
0.000000
  0
TEXT
  8
LABEL
 10
561.924733
 20
472.303277
 30
0.000000
 40
14.000000
  1
P08
 72
     1
 11
561.924733
 21
472.303277
 31
0.000000
 73
     2
  0
POLYLINE
  8
CUT
 66
     1
 10
0.000000
 20
0.000000
 30
0.000000
 70
     1
  0
VERTEX
  8
CUT
 10
2161.137868
 20
181.154683
 30
0.000000
 42
0.040054
  0
VERTEX
  8
CUT
 10
2149.169567
 20
10.000000
 30
0.000000
  0
VERTEX
  8
CUT
 10
2419.343311
 20
12.769740
 30
0.000000
 42
-0.040054
  0
VERTEX
  8
CUT
 10
2428.296827
 20
140.810981
 30
0.000000
  0
SEQEND
  8
CUT
  0
LINE
  8
ETCH
 10
2155.577771
 20
138.580063
 30
0.000000
 11
2161.541610
 21
137.922315
 31
0.000000
  0
LINE
  8
ETCH
 10
2424.137305
 20
108.960802
 30
0.000000
 11
2418.173467
 21
109.618550
 31
0.000000
  0
LINE
  8
ETCH
 10
2151.726032
 20
95.817029
 30
0.000000
 11
2157.711417
 21
95.398490
 31
0.000000
  0
LINE
  8
ETCH
 10
2421.255809
 20
76.969671
 30
0.000000
 11
2415.270425
 21
77.388210
 31
0.000000
  0
LINE
  8
ETCH
 10
2149.588822
 20
52.934103
 30
0.000000
 11
2155.586162
 21
52.755444
 31
0.000000
  0
LINE
  8
ETCH
 10
2419.656957
 20
44.888848
 30
0.000000
 11
2413.659618
 21
45.067507
 31
0.000000
  0
TEXT
  8
LABEL
 10
2286.490921
 20
86.393350
 30
0.000000
 40
14.000000
  1
P03
 50
86.000000
 72
     1
 11
2286.490921
 21
86.393350
 31
0.000000
 73
     2
  0
POLYLINE
  8
CUT
 66
     1
 10
0.000000
 20
0.000000
 30
0.000000
 70
     1
  0
VERTEX
  8
CUT
 10
752.857870
 20
506.844763
 30
0.000000
 42
0.004538
  0
VERTEX
  8
CUT
 10
752.857870
 20
378.355387
 30
0.000000
  0
VERTEX
  8
CUT
 10
897.261331
 20
379.666096
 30
0.000000
 42
-0.004538
  0
VERTEX
  8
CUT
 10
897.261331
 20
505.534054
 30
0.000000
  0
SEQEND
  8
CUT
  0
LINE
  8
ETCH
 10
752.639201
 20
474.722750
 30
0.000000
 11
758.639139
 21
474.695520
 31
0.000000
  0
LINE
  8
ETCH
 10
897.047123
 20
474.067389
 30
0.000000
 11
891.047185
 21
474.094618
 31
0.000000
  0
LINE
  8
ETCH
 10
752.566310
 20
442.600075
 30
0.000000
 11
758.566310
 21
442.600075
 31
0.000000
  0
LINE
  8
ETCH
 10
896.975720
 20
442.600075
 30
0.000000
 11
890.975720
 21
442.600075
 31
0.000000
  0
LINE
  8
ETCH
 10
752.639201
 20
410.477400
 30
0.000000
 11
758.639139
 21
410.504630
 31
0.000000
  0
LINE
  8
ETCH
 10
897.047123
 20
411.132761
 30
0.000000
 11
891.047185
 21
411.105532
 31
0.000000
  0
TEXT
  8
LABEL
 10
824.771015
 20
442.600075
 30
0.000000
 40
14.000000
  1
P02
 50
90.000000
 72
     1
 11
824.771015
 21
442.600075
 31
0.000000
 73
     2
  0
POLYLINE
  8
CUT
 66
     1
 10
0.000000
 20
0.000000
 30
0.000000
 70
     1
  0
VERTEX
  8
CUT
 10
907.546942
 20
504.223346
 30
0.000000
 42
0.004538
  0
VERTEX
  8
CUT
 10
907.546942
 20
378.355387
 30
0.000000
  0
VERTEX
  8
CUT
 10
1051.950404
 20
379.666096
 30
0.000000
 42
-0.004538
  0
VERTEX
  8
CUT
 10
1051.950404
 20
502.912637
 30
0.000000
  0
SEQEND
  8
CUT
  0
LINE
  8
ETCH
 10
907.332734
 20
472.756680
 30
0.000000
 11
913.332672
 21
472.729451
 31
0.000000
  0
LINE
  8
ETCH
 10
1051.740657
 20
472.101319
 30
0.000000
 11
1045.740719
 21
472.128548
 31
0.000000
  0
LINE
  8
ETCH
 10
907.261331
 20
441.289366
 30
0.000000
 11
913.261331
 21
441.289366
 31
0.000000
  0
LINE
  8
ETCH
 10
1051.670741
 20
441.289366
 30
0.000000
 11
1045.670741
 21
441.289366
 31
0.000000
  0
LINE
  8
ETCH
 10
907.332734
 20
409.822053
 30
0.000000
 11
913.332672
 21
409.849282
 31
0.000000
  0
LINE
  8
ETCH
 10
1051.740657
 20
410.477414
 30
0.000000
 11
1045.740719
 21
410.450185
 31
0.000000
  0
TEXT
  8
LABEL
 10
979.466036
 20
441.289366
 30
0.000000
 40
14.000000
  1
P01
 50
90.000000
 72
     1
 11
979.466036
 21
441.289366
 31
0.000000
 73
     2
  0
ENDSEC
  0
EOF
