  0
SECTION
  2
HEADER
  9
$ACADVER
  1
AC1009
  9
$INSBASE
 10
0.000000
 20
0.000000
 30
0.000000
  9
$EXTMIN
 10
0.000000
 20
0.000000
 30
0.000000
  9
$EXTMAX
 10
360.329309
 20
571.032052
 30
0.000000
  9
$MEASUREMENT
 70
     1
  9
$INSUNITS
 70
     4
  0
ENDSEC
  0
SECTION
  2
TABLES
  0
TABLE
  2
LTYPE
 70
     1
  0
LTYPE
  2
CONTINUOUS
 70
     0
  3
Solid line
 72
    65
 73
     0
 40
0.000000
  0
ENDTAB
  0
TABLE
  2
LAYER
 70
     4
  0
LAYER
  2
CUT
 70
     0
 62
     7
  6
CONTINUOUS
  0
LAYER
  2
ETCH
 70
     0
 62
     5
  6
CONTINUOUS
  0
LAYER
  2
LABEL
 70
     0
 62
     3
  6
CONTINUOUS
  0
LAYER
  2
SHEET
 70
     0
 62
     8
  6
CONTINUOUS
  0
ENDTAB
  0
ENDSEC
  0
SECTION
  2
BLOCKS
  0
ENDSEC
  0
SECTION
  2
ENTITIES
  0
POLYLINE
  8
CUT
 66
     1
 10
0.000000
 20
0.000000
 30
0.000000
 70
     1
  0
VERTEX
  8
CUT
 10
360.329309
 20
559.674703
 30
0.000000
 42
0.063039
  0
VERTEX
  8
CUT
 10
0.000000
 20
559.674703
 30
0.000000
  0
VERTEX
  8
CUT
 10
70.843875
 20
0.000000
 30
0.000000
 42
-0.063039
  0
VERTEX
  8
CUT
 10
289.485434
 20
0.000000
 30
0.000000
  0
SEQEND
  8
CUT
  0
LINE
  8
ETCH
 10
270.425792
 20
568.189900
 30
0.000000
 11
270.048309
 21
562.201786
 31
0.000000
  0
LINE
  8
ETCH
 10
234.933543
 20
5.166873
 30
0.000000
 11
235.311026
 21
11.154987
 31
0.000000
  0
LINE
  8
ETCH
 10
180.164654
 20
571.032052
 30
0.000000
 11
180.164654
 21
565.032052
 31
0.000000
  0
LINE
  8
ETCH
 10
180.164654
 20
6.891442
 30
0.000000
 11
180.164654
 21
12.891442
 31
0.000000
  0
LINE
  8
ETCH
 10
89.903517
 20
568.189900
 30
0.000000
 11
90.281000
 21
562.201786
 31
0.000000
  0
LINE
  8
ETCH
 10
125.395766
 20
5.166873
 30
0.000000
 11
125.018283
 21
11.154987
 31
0.000000
  0
TEXT
  8
LABEL
 10
180.164654
 20
288.961747
 30
0.000000
 40
14.000000
  1
P09
 72
     1
 11
180.164654
 21
288.961747
 31
0.000000
 73
     2
  0
ENDSEC
  0
EOF
