  0
SECTION
  2
HEADER
  9
$ACADVER
  1
AC1009
  9
$INSBASE
 10
0.000000
 20
0.000000
 30
0.000000
  9
$EXTMIN
 10
0.000000
 20
0.000000
 30
0.000000
  9
$EXTMAX
 10
361.283155
 20
187.895780
 30
0.000000
  9
$MEASUREMENT
 70
     1
  9
$INSUNITS
 70
     4
  0
ENDSEC
  0
SECTION
  2
TABLES
  0
TABLE
  2
LTYPE
 70
     1
  0
LTYPE
  2
CONTINUOUS
 70
     0
  3
Solid line
 72
    65
 73
     0
 40
0.000000
  0
ENDTAB
  0
TABLE
  2
LAYER
 70
     4
  0
LAYER
  2
CUT
 70
     0
 62
     7
  6
CONTINUOUS
  0
LAYER
  2
ETCH
 70
     0
 62
     5
  6
CONTINUOUS
  0
LAYER
  2
LABEL
 70
     0
 62
     3
  6
CONTINUOUS
  0
LAYER
  2
SHEET
 70
     0
 62
     8
  6
CONTINUOUS
  0
ENDTAB
  0
ENDSEC
  0
SECTION
  2
BLOCKS
  0
ENDSEC
  0
SECTION
  2
ENTITIES
  0
POLYLINE
  8
CUT
 66
     1
 10
0.000000
 20
0.000000
 30
0.000000
 70
     1
  0
VERTEX
  8
CUT
 10
0.000000
 20
0.000000
 30
0.000000
  0
VERTEX
  8
CUT
 10
361.283155
 20
0.000000
 30
0.000000
  0
VERTEX
  8
CUT
 10
361.283155
 20
187.895780
 30
0.000000
  0
VERTEX
  8
CUT
 10
0.000000
 20
187.895780
 30
0.000000
  0
SEQEND
  8
CUT
  0
LINE
  8
ETCH
 10
90.320789
 20
0.000000
 30
0.000000
 11
90.320789
 21
6.000000
 31
0.000000
  0
LINE
  8
ETCH
 10
90.320789
 20
187.895780
 30
0.000000
 11
90.320789
 21
181.895780
 31
0.000000
  0
LINE
  8
ETCH
 10
180.641578
 20
0.000000
 30
0.000000
 11
180.641578
 21
6.000000
 31
0.000000
  0
LINE
  8
ETCH
 10
180.641578
 20
187.895780
 30
0.000000
 11
180.641578
 21
181.895780
 31
0.000000
  0
LINE
  8
ETCH
 10
270.962366
 20
0.000000
 30
0.000000
 11
270.962366
 21
6.000000
 31
0.000000
  0
LINE
  8
ETCH
 10
270.962366
 20
187.895780
 30
0.000000
 11
270.962366
 21
181.895780
 31
0.000000
  0
TEXT
  8
LABEL
 10
180.641578
 20
93.947890
 30
0.000000
 40
14.000000
  1
P08
 72
     1
 11
180.641578
 21
93.947890
 31
0.000000
 73
     2
  0
ENDSEC
  0
EOF
