  0
SECTION
  2
HEADER
  9
$ACADVER
  1
AC1009
  9
$INSBASE
 10
0.000000
 20
0.000000
 30
0.000000
  9
$EXTMIN
 10
0.000000
 20
0.000000
 30
0.000000
  9
$EXTMAX
 10
171.572626
 20
272.758463
 30
0.000000
  9
$MEASUREMENT
 70
     1
  9
$INSUNITS
 70
     4
  0
ENDSEC
  0
SECTION
  2
TABLES
  0
TABLE
  2
LTYPE
 70
     1
  0
LTYPE
  2
CONTINUOUS
 70
     0
  3
Solid line
 72
    65
 73
     0
 40
0.000000
  0
ENDTAB
  0
TABLE
  2
LAYER
 70
     4
  0
LAYER
  2
CUT
 70
     0
 62
     7
  6
CONTINUOUS
  0
LAYER
  2
ETCH
 70
     0
 62
     5
  6
CONTINUOUS
  0
LAYER
  2
LABEL
 70
     0
 62
     3
  6
CONTINUOUS
  0
LAYER
  2
SHEET
 70
     0
 62
     8
  6
CONTINUOUS
  0
ENDTAB
  0
ENDSEC
  0
SECTION
  2
BLOCKS
  0
ENDSEC
  0
SECTION
  2
ENTITIES
  0
POLYLINE
  8
CUT
 66
     1
 10
0.000000
 20
0.000000
 30
0.000000
 70
     1
  0
VERTEX
  8
CUT
 10
171.572626
 20
269.322407
 30
0.000000
 42
0.040054
  0
VERTEX
  8
CUT
 10
0.000000
 20
269.322407
 30
0.000000
  0
VERTEX
  8
CUT
 10
21.609360
 20
0.000000
 30
0.000000
 42
-0.040054
  0
VERTEX
  8
CUT
 10
149.963265
 20
0.000000
 30
0.000000
  0
SEQEND
  8
CUT
  0
LINE
  8
ETCH
 10
128.713862
 20
271.899105
 30
0.000000
 11
128.473733
 21
265.903912
 31
0.000000
  0
LINE
  8
ETCH
 10
117.900519
 20
1.927634
 30
0.000000
 11
118.140648
 21
7.922826
 31
0.000000
  0
LINE
  8
ETCH
 10
85.786313
 20
272.758463
 30
0.000000
 11
85.786313
 21
266.758463
 31
0.000000
  0
LINE
  8
ETCH
 10
85.786313
 20
2.570521
 30
0.000000
 11
85.786313
 21
8.570521
 31
0.000000
  0
LINE
  8
ETCH
 10
42.858764
 20
271.899105
 30
0.000000
 11
43.098893
 21
265.903912
 31
0.000000
  0
LINE
  8
ETCH
 10
53.672107
 20
1.927634
 30
0.000000
 11
53.431978
 21
7.922826
 31
0.000000
  0
TEXT
  8
LABEL
 10
85.786313
 20
137.664492
 30
0.000000
 40
14.000000
  1
P03
 72
     1
 11
85.786313
 21
137.664492
 31
0.000000
 73
     2
  0
ENDSEC
  0
EOF
