  0
SECTION
  2
HEADER
  9
$ACADVER
  1
AC1009
  9
$INSBASE
 10
0.000000
 20
0.000000
 30
0.000000
  9
$EXTMIN
 10
0.000000
 20
0.000000
 30
0.000000
  9
$EXTMAX
 10
125.867958
 20
144.689072
 30
0.000000
  9
$MEASUREMENT
 70
     1
  9
$INSUNITS
 70
     4
  0
ENDSEC
  0
SECTION
  2
TABLES
  0
TABLE
  2
LTYPE
 70
     1
  0
LTYPE
  2
CONTINUOUS
 70
     0
  3
Solid line
 72
    65
 73
     0
 40
0.000000
  0
ENDTAB
  0
TABLE
  2
LAYER
 70
     4
  0
LAYER
  2
CUT
 70
     0
 62
     7
  6
CONTINUOUS
  0
LAYER
  2
ETCH
 70
     0
 62
     5
  6
CONTINUOUS
  0
LAYER
  2
LABEL
 70
     0
 62
     3
  6
CONTINUOUS
  0
LAYER
  2
SHEET
 70
     0
 62
     8
  6
CONTINUOUS
  0
ENDTAB
  0
ENDSEC
  0
SECTION
  2
BLOCKS
  0
ENDSEC
  0
SECTION
  2
ENTITIES
  0
POLYLINE
  8
CUT
 66
     1
 10
0.000000
 20
0.000000
 30
0.000000
 70
     1
  0
VERTEX
  8
CUT
 10
125.867958
 20
144.403462
 30
0.000000
 42
0.004538
  0
VERTEX
  8
CUT
 10
0.000000
 20
144.403462
 30
0.000000
  0
VERTEX
  8
CUT
 10
1.310709
 20
0.000000
 30
0.000000
 42
-0.004538
  0
VERTEX
  8
CUT
 10
124.557250
 20
0.000000
 30
0.000000
  0
SEQEND
  8
CUT
  0
LINE
  8
ETCH
 10
94.401293
 20
144.617669
 30
0.000000
 11
94.374063
 21
138.617731
 31
0.000000
  0
LINE
  8
ETCH
 10
93.745932
 20
0.209747
 30
0.000000
 11
93.773161
 21
6.209685
 31
0.000000
  0
LINE
  8
ETCH
 10
62.933979
 20
144.689072
 30
0.000000
 11
62.933979
 21
138.689072
 31
0.000000
  0
LINE
  8
ETCH
 10
62.933979
 20
0.279663
 30
0.000000
 11
62.933979
 21
6.279663
 31
0.000000
  0
LINE
  8
ETCH
 10
31.466666
 20
144.617669
 30
0.000000
 11
31.493895
 21
138.617731
 31
0.000000
  0
LINE
  8
ETCH
 10
32.122027
 20
0.209747
 30
0.000000
 11
32.094797
 21
6.209685
 31
0.000000
  0
TEXT
  8
LABEL
 10
62.933979
 20
72.484368
 30
0.000000
 40
14.000000
  1
P01
 72
     1
 11
62.933979
 21
72.484368
 31
0.000000
 73
     2
  0
ENDSEC
  0
EOF
