  0
SECTION
  2
HEADER
  9
$ACADVER
  1
AC1009
  9
$INSBASE
 10
0.000000
 20
0.000000
 30
0.000000
  9
$EXTMIN
 10
0.000000
 20
0.000000
 30
0.000000
  9
$EXTMAX
 10
287.274345
 20
277.610283
 30
0.000000
  9
$MEASUREMENT
 70
     1
  9
$INSUNITS
 70
     4
  0
ENDSEC
  0
SECTION
  2
TABLES
  0
TABLE
  2
LTYPE
 70
     1
  0
LTYPE
  2
CONTINUOUS
 70
     0
  3
Solid line
 72
    65
 73
     0
 40
0.000000
  0
ENDTAB
  0
TABLE
  2
LAYER
 70
     4
  0
LAYER
  2
CUT
 70
     0
 62
     7
  6
CONTINUOUS
  0
LAYER
  2
ETCH
 70
     0
 62
     5
  6
CONTINUOUS
  0
LAYER
  2
LABEL
 70
     0
 62
     3
  6
CONTINUOUS
  0
LAYER
  2
SHEET
 70
     0
 62
     8
  6
CONTINUOUS
  0
ENDTAB
  0
ENDSEC
  0
SECTION
  2
BLOCKS
  0
ENDSEC
  0
SECTION
  2
ENTITIES
  0
POLYLINE
  8
CUT
 66
     1
 10
0.000000
 20
0.000000
 30
0.000000
 70
     1
  0
VERTEX
  8
CUT
 10
287.274345
 20
267.881828
 30
0.000000
 42
0.067729
  0
VERTEX
  8
CUT
 10
0.000000
 20
267.881828
 30
0.000000
  0
VERTEX
  8
CUT
 10
36.454158
 20
0.000000
 30
0.000000
 42
-0.067729
  0
VERTEX
  8
CUT
 10
250.820187
 20
0.000000
 30
0.000000
  0
SEQEND
  8
CUT
  0
LINE
  8
ETCH
 10
215.620296
 20
275.175386
 30
0.000000
 11
215.214849
 21
269.189101
 31
0.000000
  0
LINE
  8
ETCH
 10
197.351458
 20
5.442502
 30
0.000000
 11
197.756906
 21
11.428787
 31
0.000000
  0
LINE
  8
ETCH
 10
143.637173
 20
277.610283
 30
0.000000
 11
143.637173
 21
271.610283
 31
0.000000
  0
LINE
  8
ETCH
 10
143.637173
 20
7.259438
 30
0.000000
 11
143.637173
 21
13.259438
 31
0.000000
  0
LINE
  8
ETCH
 10
71.654049
 20
275.175386
 30
0.000000
 11
72.059497
 21
269.189101
 31
0.000000
  0
LINE
  8
ETCH
 10
89.922887
 20
5.442502
 30
0.000000
 11
89.517439
 21
11.428787
 31
0.000000
  0
TEXT
  8
LABEL
 10
143.637173
 20
142.434860
 30
0.000000
 40
14.000000
  1
P05
 72
     1
 11
143.637173
 21
142.434860
 31
0.000000
 73
     2
  0
ENDSEC
  0
EOF
