  0
SECTION
  2
HEADER
  9
$ACADVER
  1
AC1009
  9
$INSBASE
 10
0.000000
 20
0.000000
 30
0.000000
  9
$EXTMIN
 10
0.000000
 20
0.000000
 30
0.000000
  9
$EXTMAX
 10
218.641558
 20
566.566145
 30
0.000000
  9
$MEASUREMENT
 70
     1
  9
$INSUNITS
 70
     4
  0
ENDSEC
  0
SECTION
  2
TABLES
  0
TABLE
  2
LTYPE
 70
     1
  0
LTYPE
  2
CONTINUOUS
 70
     0
  3
Solid line
 72
    65
 73
     0
 40
0.000000
  0
ENDTAB
  0
TABLE
  2
LAYER
 70
     4
  0
LAYER
  2
CUT
 70
     0
 62
     7
  6
CONTINUOUS
  0
LAYER
  2
ETCH
 70
     0
 62
     5
  6
CONTINUOUS
  0
LAYER
  2
LABEL
 70
     0
 62
     3
  6
CONTINUOUS
  0
LAYER
  2
SHEET
 70
     0
 62
     8
  6
CONTINUOUS
  0
ENDTAB
  0
ENDSEC
  0
SECTION
  2
BLOCKS
  0
ENDSEC
  0
SECTION
  2
ENTITIES
  0
POLYLINE
  8
CUT
 66
     1
 10
0.000000
 20
0.000000
 30
0.000000
 70
     1
  0
VERTEX
  8
CUT
 10
218.641558
 20
559.674703
 30
0.000000
 42
0.063039
  0
VERTEX
  8
CUT
 10
0.000000
 20
559.674703
 30
0.000000
  0
VERTEX
  8
CUT
 10
70.843875
 20
0.000000
 30
0.000000
 42
-0.063039
  0
VERTEX
  8
CUT
 10
147.797683
 20
0.000000
 30
0.000000
  0
SEQEND
  8
CUT
  0
LINE
  8
ETCH
 10
164.089668
 20
564.841576
 30
0.000000
 11
163.712185
 21
558.853463
 31
0.000000
  0
LINE
  8
ETCH
 10
128.597419
 20
1.818550
 30
0.000000
 11
128.974902
 21
7.806664
 31
0.000000
  0
LINE
  8
ETCH
 10
109.320779
 20
566.566145
 30
0.000000
 11
109.320779
 21
560.566145
 31
0.000000
  0
LINE
  8
ETCH
 10
109.320779
 20
2.425535
 30
0.000000
 11
109.320779
 21
8.425535
 31
0.000000
  0
LINE
  8
ETCH
 10
54.551890
 20
564.841576
 30
0.000000
 11
54.929373
 21
558.853463
 31
0.000000
  0
LINE
  8
ETCH
 10
90.044139
 20
1.818550
 30
0.000000
 11
89.666656
 21
7.806664
 31
0.000000
  0
TEXT
  8
LABEL
 10
109.320779
 20
284.495840
 30
0.000000
 40
14.000000
  1
P10
 72
     1
 11
109.320779
 21
284.495840
 31
0.000000
 73
     2
  0
ENDSEC
  0
EOF
